<svg width="34" height="34" viewBox="0 0 34 34" fill="none" xmlns="http://www.w3.org/2000/svg">
<path d="M17 8.85842C18.6547 7.75908 20.9015 7.08333 23.375 7.08333C25.8499 7.08333 28.0953 7.75908 29.75 8.85842V27.2751C28.0953 26.1757 25.8499 25.5 23.375 25.5C20.9015 25.5 18.6547 26.1757 17 27.2751M17 8.85842V27.2751V8.85842ZM17 8.85842C15.3453 7.75908 13.0985 7.08333 10.625 7.08333C8.1515 7.08333 5.90467 7.75908 4.25 8.85842V27.2751C5.90467 26.1757 8.1515 25.5 10.625 25.5C13.0985 25.5 15.3453 26.1757 17 27.2751V8.85842Z" stroke="black" stroke-width="2" stroke-linecap="round" stroke-linejoin="round"/>
</svg>
